<?xml version="1.0" encoding="utf-8"?>
<!-- Generator: Adobe Illustrator 19.0.0, SVG Export Plug-In . SVG Version: 6.00 Build 0)  -->
<svg version="1.1" id="Layer_1" xmlns="http://www.w3.org/2000/svg" xmlns:xlink="http://www.w3.org/1999/xlink" x="0px" y="0px"
	 viewBox="0 0 512 512" style="enable-background:new 0 0 512 512;" xml:space="preserve">
<g id="XMLID_1_">
	<path id="XMLID_3_" d="M497.6,403c-19.5-19.5-66.9-49.2-90.1-60.4c-26.9-13-37.2-13-55.7,0.9c-15.8,11.1-26,22.3-44.6,17.6
		c-18.6-3.7-53.9-31.6-89.2-66c-35.3-35.3-62.2-70.6-66-89.2c-3.7-18.6,6.5-28.8,17.6-44.6c13.9-18.6,13.9-28.8,0.9-55.7
		c-11.1-23.2-39.9-69.7-60.4-90.1C90.8-3.9,86.1,0.7,75.9,4.5c0,0-15.8,6.5-31.6,16.7c-19.5,13-30.7,24.2-38.1,39.9
		c-7.4,16.7-16.7,46.4,27.9,126.3c36.2,64.1,71.5,113.3,123.5,165.3l0,0l0,0C210.6,405.7,258.9,441,323,476.3
		c79.9,44.6,109.6,36.2,126.3,27.9c16.7-7.4,26.9-18.6,39.9-38.1c10.2-15.8,16.7-31.6,16.7-31.6C513.4,426.2,517.1,422.5,497.6,403z
		"/>
</g>
</svg>
